<svg width="259" height="95" viewBox="0 0 259 95" fill="none" xmlns="http://www.w3.org/2000/svg">
<path d="M130.198 30.8071V16.7258H135.585C136.555 16.7258 137.412 16.8959 138.155 17.2362C138.911 17.5764 139.503 18.0804 139.932 18.7482C140.36 19.4161 140.574 20.2414 140.574 21.2243C140.574 22.1819 140.354 23.001 139.913 23.6814C139.472 24.3492 138.88 24.8533 138.136 25.1935L141.349 30.8071H138.061L134.583 24.5887L136.473 25.7038H133.127V30.8071H130.198ZM133.127 23.1522H135.603C136.019 23.1522 136.378 23.0703 136.681 22.9065C136.983 22.7427 137.216 22.5158 137.38 22.226C137.557 21.9362 137.645 21.6023 137.645 21.2243C137.645 20.8337 137.557 20.4934 137.38 20.2036C137.216 19.9138 136.983 19.687 136.681 19.5232C136.378 19.3594 136.019 19.2775 135.603 19.2775H133.127V23.1522Z" fill="white"/>
<path d="M147.341 30.8071V16.7258H156.81V19.2775H150.271V22.4717H156.432V25.0234H150.271V28.2555H156.81V30.8071H147.341Z" fill="white"/>
<path d="M163.007 30.8071V16.7258H165.842L171.116 23.7192H169.793L174.915 16.7258H177.75V30.8071H174.82V19.9579L175.992 20.2225L170.568 27.2159H170.19L164.954 20.2225L165.937 19.9579V30.8071H163.007Z" fill="white"/>
<path d="M191.833 31.0339C190.775 31.0339 189.792 30.8512 188.885 30.4858C187.978 30.1204 187.184 29.61 186.503 28.9548C185.836 28.287 185.313 27.512 184.935 26.63C184.557 25.7479 184.368 24.7903 184.368 23.757C184.368 22.7238 184.55 21.7661 184.916 20.8841C185.294 20.002 185.817 19.2334 186.484 18.5781C187.165 17.9229 187.959 17.4126 188.866 17.0472C189.773 16.6817 190.762 16.499 191.833 16.499C192.904 16.499 193.894 16.6817 194.801 17.0472C195.708 17.4126 196.496 17.9229 197.164 18.5781C197.844 19.2334 198.367 20.002 198.732 20.8841C199.11 21.7661 199.299 22.7238 199.299 23.757C199.299 24.7903 199.11 25.7479 198.732 26.63C198.354 27.512 197.825 28.287 197.145 28.9548C196.477 29.61 195.689 30.1204 194.782 30.4858C193.875 30.8512 192.892 31.0339 191.833 31.0339ZM191.833 28.3878C192.476 28.3878 193.068 28.2744 193.61 28.0475C194.165 27.8207 194.65 27.5057 195.066 27.1025C195.481 26.6867 195.803 26.1952 196.029 25.6282C196.256 25.0612 196.37 24.4375 196.37 23.757C196.37 23.0766 196.256 22.4591 196.029 21.9047C195.803 21.3377 195.481 20.8463 195.066 20.4304C194.65 20.0146 194.165 19.6996 193.61 19.4854C193.068 19.2586 192.476 19.1452 191.833 19.1452C191.191 19.1452 190.592 19.2586 190.038 19.4854C189.496 19.6996 189.017 20.0146 188.601 20.4304C188.186 20.8463 187.864 21.3377 187.637 21.9047C187.411 22.4591 187.297 23.0766 187.297 23.757C187.297 24.4375 187.411 25.0612 187.637 25.6282C187.864 26.1952 188.186 26.6867 188.601 27.1025C189.017 27.5057 189.496 27.8207 190.038 28.0475C190.592 28.2744 191.191 28.3878 191.833 28.3878Z" fill="white"/>
<path d="M207.874 30.8071V19.2775H204.302V16.7258H214.319V19.2775H210.804V30.8071H207.874Z" fill="white"/>
<path d="M220.306 30.8071V16.7258H229.776V19.2775H223.236V22.4717H229.398V25.0234H223.236V28.2555H229.776V30.8071H220.306Z" fill="white"/>
<path d="M136.889 55.0961C135.881 55.0961 134.942 54.9133 134.072 54.5479C133.216 54.1825 132.466 53.6722 131.823 53.0169C131.181 52.3617 130.677 51.5931 130.311 50.711C129.958 49.829 129.782 48.865 129.782 47.8192C129.782 46.7733 129.958 45.8094 130.311 44.9273C130.664 44.0327 131.162 43.264 131.804 42.6214C132.447 41.9661 133.197 41.4621 134.054 41.1093C134.923 40.7439 135.868 40.5612 136.889 40.5612C137.909 40.5612 138.823 40.7313 139.629 41.0715C140.448 41.4117 141.141 41.8653 141.708 42.4324C142.276 42.9994 142.679 43.6294 142.918 44.3225L140.329 45.5699C140.089 44.8895 139.667 44.3288 139.062 43.8878C138.47 43.4341 137.746 43.2073 136.889 43.2073C136.057 43.2073 135.326 43.4026 134.696 43.7932C134.066 44.1839 133.575 44.7257 133.222 45.4187C132.882 46.0992 132.712 46.8993 132.712 47.8192C132.712 48.739 132.882 49.5455 133.222 50.2385C133.575 50.9315 134.066 51.4734 134.696 51.864C135.326 52.2546 136.057 52.4499 136.889 52.4499C137.746 52.4499 138.47 52.2294 139.062 51.7884C139.667 51.3348 140.089 50.7677 140.329 50.0873L142.918 51.3348C142.679 52.0278 142.276 52.6578 141.708 53.2249C141.141 53.7919 140.448 54.2455 139.629 54.5857C138.823 54.9259 137.909 55.0961 136.889 55.0961Z" fill="white"/>
<path d="M149.334 54.8692V40.788H152.264V52.3176H158.218V54.8692H149.334Z" fill="white"/>
<path d="M164.207 54.8692V40.788H173.676V43.3396H167.137V46.5339H173.298V49.0855H167.137V52.3176H173.676V54.8692H164.207Z" fill="white"/>
<path d="M178.834 54.8692L183.597 40.788H187.491L192.254 54.8692H189.059L188.114 51.9963H182.954L182.009 54.8692H178.834ZM183.767 49.4447H187.302L185.147 42.7915H185.941L183.767 49.4447Z" fill="white"/>
<path d="M198.253 54.8692V40.788H200.503L208.063 50.7488L206.853 51.0323V40.788H209.783V54.8692H207.515L200.087 44.8328L201.183 44.5493V54.8692H198.253Z" fill="white"/>
<path d="M216.818 54.8692V40.788H219.747V54.8692H216.818Z" fill="white"/>
<path d="M226.781 54.8692V40.788H229.03L236.59 50.7488L235.381 51.0323V40.788H238.31V54.8692H236.042L228.614 44.8328L229.71 44.5493V54.8692H226.781Z" fill="white"/>
<path d="M252.111 55.0961C251.103 55.0961 250.165 54.9133 249.295 54.5479C248.426 54.1825 247.663 53.6722 247.008 53.0169C246.353 52.3617 245.843 51.5931 245.477 50.711C245.112 49.829 244.929 48.865 244.929 47.8192C244.929 46.7733 245.105 45.8094 245.458 44.9273C245.811 44.0327 246.309 43.264 246.951 42.6214C247.594 41.9661 248.344 41.4621 249.201 41.1093C250.07 40.7439 251.015 40.5612 252.036 40.5612C253.057 40.5612 253.97 40.7313 254.777 41.0715C255.596 41.4117 256.289 41.8653 256.856 42.4324C257.423 42.9994 257.826 43.6294 258.065 44.3225L255.476 45.5699C255.236 44.8895 254.814 44.3288 254.209 43.8878C253.617 43.4341 252.893 43.2073 252.036 43.2073C251.204 43.2073 250.473 43.4026 249.843 43.7932C249.213 44.1839 248.722 44.7257 248.369 45.4187C248.029 46.0992 247.859 46.8993 247.859 47.8192C247.859 48.739 248.041 49.5455 248.407 50.2385C248.772 50.9315 249.27 51.4734 249.9 51.864C250.543 52.2546 251.28 52.4499 252.111 52.4499C252.754 52.4499 253.353 52.3302 253.907 52.0908C254.474 51.8388 254.928 51.4797 255.268 51.0134C255.621 50.5472 255.797 49.9865 255.797 49.3312V48.1594L257.139 49.2934H252.036V46.8363H258.727V48.3295C258.727 49.4762 258.538 50.4779 258.16 51.3348C257.782 52.179 257.271 52.8846 256.629 53.4517C255.999 54.0061 255.287 54.4219 254.493 54.6991C253.712 54.9638 252.918 55.0961 252.111 55.0961Z" fill="white"/>
<path d="M129.158 78.9314L133.921 64.8501H137.815L142.578 78.9314H139.384L138.439 76.0584H133.279L132.334 78.9314H129.158ZM134.091 73.5068H137.626L135.471 66.8536H136.265L134.091 73.5068Z" fill="white"/>
<path d="M154.696 79.1582C153.688 79.1582 152.749 78.9755 151.88 78.6101C151.023 78.2447 150.273 77.7343 149.631 77.0791C148.988 76.4239 148.484 75.6552 148.119 74.7732C147.766 73.8911 147.59 72.9272 147.59 71.8813C147.59 70.8355 147.766 69.8715 148.119 68.9895C148.472 68.0948 148.969 67.3262 149.612 66.6835C150.255 66.0283 151.004 65.5243 151.861 65.1715C152.731 64.806 153.676 64.6233 154.696 64.6233C155.717 64.6233 156.631 64.7934 157.437 65.1337C158.256 65.4739 158.949 65.9275 159.516 66.4945C160.083 67.0616 160.486 67.6916 160.726 68.3846L158.136 69.6321C157.897 68.9517 157.475 68.3909 156.87 67.9499C156.278 67.4963 155.553 67.2695 154.696 67.2695C153.865 67.2695 153.134 67.4648 152.504 67.8554C151.874 68.246 151.382 68.7878 151.029 69.4809C150.689 70.1613 150.519 70.9615 150.519 71.8813C150.519 72.8012 150.689 73.6076 151.029 74.3006C151.382 74.9937 151.874 75.5355 152.504 75.9261C153.134 76.3168 153.865 76.5121 154.696 76.5121C155.553 76.5121 156.278 76.2916 156.87 75.8505C157.475 75.3969 157.897 74.8299 158.136 74.1494L160.726 75.3969C160.486 76.0899 160.083 76.72 159.516 77.287C158.949 77.854 158.256 78.3077 157.437 78.6479C156.631 78.9881 155.717 79.1582 154.696 79.1582Z" fill="white"/>
<path d="M166.102 78.9314L170.865 64.8501H174.759L179.522 78.9314H176.328L175.383 76.0584H170.223L169.278 78.9314H166.102ZM171.036 73.5068H174.57L172.415 66.8536H173.209L171.036 73.5068Z" fill="white"/>
<path d="M185.522 78.9314V64.8501H190.115C191.639 64.8501 192.962 65.1526 194.084 65.7574C195.205 66.3622 196.075 67.1939 196.692 68.2523C197.31 69.3108 197.618 70.5204 197.618 71.8813C197.618 73.2422 197.31 74.4582 196.692 75.5292C196.075 76.5877 195.205 77.4193 194.084 78.0241C192.962 78.629 191.639 78.9314 190.115 78.9314H185.522ZM188.451 76.3798H190.19C191.11 76.3798 191.904 76.197 192.572 75.8316C193.24 75.4536 193.756 74.9307 194.122 74.2628C194.5 73.5824 194.689 72.7886 194.689 71.8813C194.689 70.9615 194.5 70.1676 194.122 69.4998C193.756 68.832 193.24 68.3153 192.572 67.9499C191.904 67.5845 191.11 67.4018 190.19 67.4018H188.451V76.3798Z" fill="white"/>
<path d="M204.031 78.9314V64.8501H213.5V67.4018H206.96V70.596H213.122V73.1477H206.96V76.3798H213.5V78.9314H204.031Z" fill="white"/>
<path d="M219.697 78.9314V64.8501H222.532L227.806 71.8435H226.483L231.605 64.8501H234.44V78.9314H231.51V68.0822L232.682 68.3468L227.257 75.3402H226.879L221.644 68.3468L222.627 68.0822V78.9314H219.697Z" fill="white"/>
<path d="M245.121 78.9314V72.7886L240.434 64.8501H243.779L247.181 70.8229H245.99L249.374 64.8501H252.719L248.051 72.7697V78.9314H245.121Z" fill="white"/>
<rect x="106.719" y="0.899414" width="1.88416" height="93.7557" fill="white"/>
<path fill-rule="evenodd" clip-rule="evenodd" d="M61.571 63.1538H43.0811C39.7266 63.1538 37.0042 60.4313 37.0042 57.0769C37.0042 53.7224 39.7266 51 43.0811 51H61.4241C61.4758 50.9987 61.5277 50.998 61.5797 50.998L61.6367 50.9981C62.1053 50.9798 65.3569 50.797 68.3934 49.185C72.2178 47.1513 74.0003 43.7807 74.0003 38.5788C74.0003 33.377 72.2178 30.0064 68.3934 27.9726C65.1118 26.2306 61.571 26.1577 61.5305 26.1577H43.073C39.7185 26.1577 36.9961 23.4352 36.9961 20.0808C36.9961 16.7264 39.7185 14.0039 43.073 14.0039H61.571C71.448 14.0039 86.146 20.5507 86.146 38.5788C86.146 47.1757 82.8037 53.1618 78.2358 57.0722C82.8082 60.9824 86.1547 66.9707 86.1547 75.573C86.1547 78.9274 83.4322 81.6499 80.0778 81.6499C76.7233 81.6499 74.0009 78.9274 74.0009 75.573C74.0009 70.3712 72.2183 67.0005 68.3939 64.9668C65.3603 63.3563 62.1051 63.1724 61.5986 63.1538L61.571 63.1538ZM43.0808 81.6518H61.5789C64.9333 81.6518 67.6558 78.9294 67.6558 75.5749C67.6558 72.2205 64.9333 69.4981 61.5789 69.4981H43.0808C43.0484 69.4981 39.7507 69.4251 36.5502 67.8289C32.5313 65.8195 30.6596 62.2787 30.6596 57.0769C30.6596 51.8751 32.4422 48.5044 36.2666 46.4707C39.5481 44.7287 43.0808 44.6557 43.0808 44.6557H61.5789C64.9333 44.6557 67.6558 41.9333 67.6558 38.5788C67.6558 35.2244 64.9333 32.502 61.5789 32.502H43.0808C33.2038 32.502 18.5059 39.0488 18.5059 57.0769C18.5059 75.105 33.2038 81.6518 43.0808 81.6518ZM4.84531 78.4365C5.93915 80.4864 8.0458 81.6532 10.2173 81.6532C11.1815 81.6532 12.1619 81.4263 13.0694 80.9401C16.0268 79.3601 17.153 75.6816 15.573 72.7161C13.3043 68.4542 12.1538 63.1956 12.1538 57.0944C12.1538 56.9 12.4698 37.2919 27.3784 29.5378C30.352 27.9902 31.5107 24.3197 29.9631 21.3461C28.4155 18.3725 24.7532 17.2138 21.7715 18.7614C0.251179 29.951 0 55.9763 0 57.0782C0 65.2131 1.62861 72.4001 4.84531 78.4365Z" fill="url(#paint0_linear_151_8876)"/>
<defs>
<linearGradient id="paint0_linear_151_8876" x1="12.8536" y1="25.3704" x2="86.2675" y2="81.8519" gradientUnits="userSpaceOnUse">
<stop stop-color="#2BA2FF"/>
<stop offset="0.33" stop-color="#3E00FF"/>
<stop offset="0.66" stop-color="#E64450"/>
<stop offset="1" stop-color="#E4B95D"/>
</linearGradient>
</defs>
</svg>
