<svg width="40" height="40" viewBox="0 0 40 40" fill="none" xmlns="http://www.w3.org/2000/svg">
<g clip-path="url(#clip0_411_5374)">
<path d="M38.9695 33.9987L33.027 28.0561C31.9322 26.9614 30.3154 26.7508 29.0248 27.3686L26.7976 25.1413C29.0844 22.4759 30.4681 19.0142 30.4681 15.235C30.4681 6.83496 23.6341 0.000976562 15.2341 0.000976562C6.83398 0.000976562 0 6.83488 0 15.235C0 23.635 6.83398 30.469 15.2341 30.469C19.0132 30.469 22.4749 29.0853 25.1403 26.7985L27.3676 29.0257C26.7505 30.3146 26.9589 31.9317 28.0552 33.0279C28.6109 33.5836 33.4088 38.3816 33.9977 38.9704C35.3684 40.3411 37.5987 40.3411 38.9695 38.9704C40.3434 37.5967 40.3437 35.3729 38.9695 33.9987ZM15.2341 28.1253C8.12633 28.1253 2.34367 22.3426 2.34367 15.2349C2.34367 8.12715 8.12633 2.34457 15.2341 2.34457C22.3418 2.34457 28.1245 8.12723 28.1245 15.235C28.1245 22.3427 22.3418 28.1253 15.2341 28.1253ZM29.7125 31.3706C29.2545 30.9125 29.2545 30.1714 29.7125 29.7133C30.1695 29.2564 30.9128 29.2564 31.3698 29.7133L32.1984 30.542L30.5412 32.1993L29.7125 31.3706ZM37.3123 37.3131C36.8554 37.77 36.112 37.77 35.655 37.3131L32.1983 33.8564L33.8555 32.1991L37.3122 35.6557C37.7692 36.1128 37.7692 36.8562 37.3123 37.3131Z" fill="white"/>
<path d="M18.6338 13.7698C19.431 12.9291 19.9216 11.795 19.9216 10.5478C19.9216 7.96316 17.8189 5.86035 15.2342 5.86035C12.6496 5.86035 10.5468 7.96309 10.5468 10.5478C10.5468 11.795 11.0374 12.9291 11.8346 13.7698C9.67109 14.97 8.20312 17.2779 8.20312 19.9225V22.2662C8.20312 22.9134 8.72781 23.4381 9.375 23.4381H21.0935C21.7407 23.4381 22.2654 22.9134 22.2654 22.2662V19.9225C22.2653 17.2779 20.7974 14.97 18.6338 13.7698ZM15.2342 8.20402C16.5266 8.20402 17.5779 9.25543 17.5779 10.5477C17.5779 11.84 16.5265 12.8914 15.2342 12.8914C13.9419 12.8914 12.8905 11.84 12.8905 10.5477C12.8905 9.25543 13.942 8.20402 15.2342 8.20402ZM19.9216 21.0944H10.5468V19.9225C10.5468 17.3379 12.6495 15.2351 15.2342 15.2351C17.8188 15.2351 19.9216 17.3379 19.9216 19.9225V21.0944Z" fill="white"/>
</g>
<defs>
<clipPath id="clip0_411_5374">
<rect width="40" height="40" fill="white"/>
</clipPath>
</defs>
</svg>
