<svg width="40" height="40" viewBox="0 0 40 40" fill="none" xmlns="http://www.w3.org/2000/svg">
<g clip-path="url(#clip0_411_5433)">
<path d="M20 0C8.97133 0 0 8.97133 0 20C0 31.0287 8.97133 40 20 40C31.0287 40 40 31.0271 40 20C40 8.97289 31.0287 0 20 0ZM20 36.9016C10.6816 36.9016 3.09836 29.3199 3.09836 20C3.09836 10.6801 10.6816 3.09836 20 3.09836C29.3199 3.09836 36.9016 10.6801 36.9016 20C36.9016 29.3199 29.3184 36.9016 20 36.9016Z" fill="black"/>
<path d="M29.176 13.0442C28.5455 12.471 27.5649 12.5159 26.9886 13.1495L17.5385 23.5555L12.9731 18.9141C12.3704 18.3038 11.3913 18.2945 10.7825 18.8956C10.1721 19.4951 10.1628 20.4757 10.7639 21.0861L16.4788 26.8956C16.7717 27.193 17.1682 27.3588 17.5834 27.3588C17.5927 27.3588 17.6035 27.3588 17.6128 27.3603C18.0404 27.351 18.4432 27.1682 18.7298 26.8522L29.2813 15.2333C29.8561 14.5981 29.8096 13.619 29.176 13.0442Z" fill="black"/>
</g>
<defs>
<clipPath id="clip0_411_5433">
<rect width="40" height="40" fill="white"/>
</clipPath>
</defs>
</svg>
