<svg width="122" height="44" viewBox="0 0 122 44" fill="none" xmlns="http://www.w3.org/2000/svg">
<path d="M60.6227 13.9845V7.42788H63.1309C63.5827 7.42788 63.9817 7.50708 64.3279 7.6655C64.6799 7.82391 64.9557 8.0586 65.1551 8.36956C65.3546 8.68052 65.4544 9.06483 65.4544 9.52247C65.4544 9.96838 65.3517 10.3497 65.1463 10.6666C64.941 10.9775 64.6652 11.2122 64.3191 11.3706L65.8152 13.9845H64.2839L62.6645 11.089L63.5446 11.6083H61.9868V13.9845H60.6227ZM61.9868 10.4202H63.1398C63.3334 10.4202 63.5006 10.382 63.6414 10.3057C63.7822 10.2295 63.8908 10.1239 63.967 9.98891C64.0492 9.85397 64.0902 9.69848 64.0902 9.52247C64.0902 9.34058 64.0492 9.18217 63.967 9.04722C63.8908 8.91228 63.7822 8.80667 63.6414 8.7304C63.5006 8.65412 63.3334 8.61598 63.1398 8.61598H61.9868V10.4202Z" fill="black"/>
<path d="M68.605 13.9845V7.42788H73.0142V8.61598H69.9691V10.1033H72.8382V11.2914H69.9691V12.7964H73.0142V13.9845H68.605Z" fill="black"/>
<path d="M75.8997 13.9845V7.42788H77.2198L79.6752 10.6842H79.0592L81.4442 7.42788H82.7643V13.9845H81.4002V8.93281L81.9459 9.05603L79.42 12.3123H79.244L76.8062 9.05603L77.2638 8.93281V13.9845H75.8997Z" fill="black"/>
<path d="M89.3219 14.0901C88.8291 14.0901 88.3714 14.005 87.949 13.8349C87.5265 13.6647 87.1569 13.4271 86.8401 13.122C86.5291 12.811 86.2856 12.4502 86.1096 12.0395C85.9336 11.6288 85.8456 11.1829 85.8456 10.7018C85.8456 10.2207 85.9307 9.77476 86.1008 9.36405C86.2768 8.95335 86.5203 8.59545 86.8313 8.29035C87.1481 7.98526 87.5177 7.74764 87.9402 7.57749C88.3626 7.40734 88.8232 7.32227 89.3219 7.32227C89.8206 7.32227 90.2812 7.40734 90.7036 7.57749C91.1261 7.74764 91.4928 7.98526 91.8037 8.29035C92.1206 8.59545 92.3641 8.95335 92.5342 9.36405C92.7102 9.77476 92.7982 10.2207 92.7982 10.7018C92.7982 11.1829 92.7102 11.6288 92.5342 12.0395C92.3582 12.4502 92.1118 12.811 91.7949 13.122C91.484 13.4271 91.1173 13.6647 90.6948 13.8349C90.2724 14.005 89.8147 14.0901 89.3219 14.0901ZM89.3219 12.858C89.6211 12.858 89.8969 12.8052 90.1492 12.6996C90.4073 12.594 90.6332 12.4473 90.8268 12.2595C91.0205 12.0659 91.1701 11.8371 91.2757 11.5731C91.3813 11.309 91.4341 11.0186 91.4341 10.7018C91.4341 10.3849 91.3813 10.0975 91.2757 9.8393C91.1701 9.57527 91.0205 9.34645 90.8268 9.15283C90.6332 8.95922 90.4073 8.81254 90.1492 8.71279C89.8969 8.60718 89.6211 8.55438 89.3219 8.55438C89.0227 8.55438 88.744 8.60718 88.4858 8.71279C88.2335 8.81254 88.0106 8.95922 87.817 9.15283C87.6233 9.34645 87.4737 9.57527 87.3681 9.8393C87.2625 10.0975 87.2097 10.3849 87.2097 10.7018C87.2097 11.0186 87.2625 11.309 87.3681 11.5731C87.4737 11.8371 87.6233 12.0659 87.817 12.2595C88.0106 12.4473 88.2335 12.594 88.4858 12.6996C88.744 12.8052 89.0227 12.858 89.3219 12.858Z" fill="black"/>
<path d="M96.7908 13.9845V8.61598H95.1274V7.42788H99.7918V8.61598H98.1549V13.9845H96.7908Z" fill="black"/>
<path d="M102.58 13.9845V7.42788H106.989V8.61598H103.944V10.1033H106.813V11.2914H103.944V12.7964H106.989V13.9845H102.58Z" fill="black"/>
<path d="M63.7382 25.2941C63.2688 25.2941 62.8317 25.209 62.4269 25.0388C62.0279 24.8687 61.6788 24.6311 61.3796 24.326C61.0804 24.0209 60.8457 23.663 60.6755 23.2523C60.5112 22.8416 60.4291 22.3927 60.4291 21.9057C60.4291 21.4188 60.5112 20.9699 60.6755 20.5592C60.8398 20.1426 61.0716 19.7847 61.3708 19.4855C61.67 19.1804 62.0191 18.9457 62.4181 18.7815C62.8229 18.6113 63.263 18.5262 63.7382 18.5262C64.2134 18.5262 64.6388 18.6054 65.0143 18.7639C65.3957 18.9223 65.7184 19.1335 65.9824 19.3975C66.2464 19.6615 66.4342 19.9549 66.5457 20.2776L65.34 20.8584C65.2285 20.5416 65.0319 20.2805 64.7503 20.0752C64.4745 19.864 64.1372 19.7583 63.7382 19.7583C63.351 19.7583 63.0107 19.8493 62.7173 20.0312C62.424 20.2131 62.1951 20.4653 62.0308 20.788C61.8724 21.1049 61.7932 21.4774 61.7932 21.9057C61.7932 22.3341 61.8724 22.7096 62.0308 23.0322C62.1951 23.3549 62.424 23.6072 62.7173 23.7891C63.0107 23.971 63.351 24.0619 63.7382 24.0619C64.1372 24.0619 64.4745 23.9593 64.7503 23.7539C65.0319 23.5427 65.2285 23.2787 65.34 22.9618L66.5457 23.5427C66.4342 23.8654 66.2464 24.1588 65.9824 24.4228C65.7184 24.6868 65.3957 24.898 65.0143 25.0564C64.6388 25.2149 64.2134 25.2941 63.7382 25.2941Z" fill="black"/>
<path d="M69.5332 25.1884V18.6318H70.8973V24.0003H73.6696V25.1884H69.5332Z" fill="black"/>
<path d="M76.4583 25.1884V18.6318H80.8675V19.82H77.8225V21.3073H80.6915V22.4954H77.8225V24.0003H80.8675V25.1884H76.4583Z" fill="black"/>
<path d="M83.269 25.1884L85.4868 18.6318H87.2998L89.5176 25.1884H88.0302L87.5902 23.8507H85.1876L84.7475 25.1884H83.269ZM85.566 22.6626H87.2118L86.2085 19.5647H86.5781L85.566 22.6626Z" fill="black"/>
<path d="M92.3112 25.1884V18.6318H93.3584L96.8788 23.2699L96.3155 23.4019V18.6318H97.6796V25.1884H96.6236L93.1648 20.5152L93.6753 20.3832V25.1884H92.3112Z" fill="black"/>
<path d="M100.955 25.1884V18.6318H102.319V25.1884H100.955Z" fill="black"/>
<path d="M105.594 25.1884V18.6318H106.641L110.162 23.2699L109.599 23.4019V18.6318H110.963V25.1884H109.907L106.448 20.5152L106.958 20.3832V25.1884H105.594Z" fill="black"/>
<path d="M117.389 25.2941C116.92 25.2941 116.482 25.209 116.078 25.0388C115.673 24.8687 115.318 24.6311 115.013 24.326C114.708 24.0209 114.47 23.663 114.3 23.2523C114.13 22.8416 114.045 22.3927 114.045 21.9057C114.045 21.4188 114.127 20.9699 114.291 20.5592C114.455 20.1426 114.687 19.7847 114.986 19.4855C115.286 19.1804 115.635 18.9457 116.034 18.7815C116.438 18.6113 116.878 18.5262 117.354 18.5262C117.829 18.5262 118.254 18.6054 118.63 18.7639C119.011 18.9223 119.334 19.1335 119.598 19.3975C119.862 19.6615 120.05 19.9549 120.161 20.2776L118.955 20.8584C118.844 20.5416 118.647 20.2805 118.366 20.0752C118.09 19.864 117.753 19.7583 117.354 19.7583C116.966 19.7583 116.626 19.8493 116.333 20.0312C116.039 20.2131 115.811 20.4653 115.646 20.788C115.488 21.1049 115.409 21.4774 115.409 21.9057C115.409 22.3341 115.494 22.7096 115.664 23.0322C115.834 23.3549 116.066 23.6072 116.359 23.7891C116.658 23.971 117.002 24.0619 117.389 24.0619C117.688 24.0619 117.967 24.0062 118.225 23.8947C118.489 23.7774 118.7 23.6102 118.859 23.3931C119.023 23.176 119.105 22.9149 119.105 22.6098V22.0642L119.73 22.5922H117.354V21.4481H120.469V22.1434C120.469 22.6773 120.381 23.1437 120.205 23.5427C120.029 23.9358 119.792 24.2644 119.492 24.5284C119.199 24.7865 118.867 24.9802 118.498 25.1092C118.134 25.2325 117.764 25.2941 117.389 25.2941Z" fill="black"/>
<path d="M60.1387 36.3924L62.3565 29.8358H64.1694L66.3873 36.3924H64.8999L64.4599 35.0547H62.0572L61.6172 36.3924H60.1387ZM62.4357 33.8666H64.0814L63.0781 30.7687H63.4478L62.4357 33.8666Z" fill="black"/>
<path d="M72.0299 36.498C71.5605 36.498 71.1234 36.413 70.7186 36.2428C70.3196 36.0727 69.9705 35.835 69.6713 35.5299C69.372 35.2248 69.1373 34.8669 68.9672 34.4562C68.8029 34.0455 68.7208 33.5967 68.7208 33.1097C68.7208 32.6227 68.8029 32.1739 68.9672 31.7632C69.1315 31.3466 69.3632 30.9887 69.6625 30.6895C69.9617 30.3844 70.3108 30.1497 70.7098 29.9854C71.1146 29.8153 71.5546 29.7302 72.0299 29.7302C72.5051 29.7302 72.9305 29.8094 73.306 29.9678C73.6874 30.1262 74.0101 30.3375 74.2741 30.6015C74.5381 30.8655 74.7259 31.1589 74.8373 31.4816L73.6316 32.0624C73.5202 31.7456 73.3236 31.4845 73.042 31.2791C72.7662 31.0679 72.4288 30.9623 72.0299 30.9623C71.6426 30.9623 71.3023 31.0533 71.009 31.2351C70.7156 31.417 70.4868 31.6693 70.3225 31.992C70.1641 32.3088 70.0849 32.6814 70.0849 33.1097C70.0849 33.538 70.1641 33.9135 70.3225 34.2362C70.4868 34.5589 70.7156 34.8112 71.009 34.9931C71.3023 35.175 71.6426 35.2659 72.0299 35.2659C72.4288 35.2659 72.7662 35.1632 73.042 34.9579C73.3236 34.7467 73.5202 34.4826 73.6316 34.1658L74.8373 34.7467C74.7259 35.0694 74.5381 35.3627 74.2741 35.6267C74.0101 35.8908 73.6874 36.102 73.306 36.2604C72.9305 36.4188 72.5051 36.498 72.0299 36.498Z" fill="black"/>
<path d="M77.3408 36.3924L79.5586 29.8358H81.3716L83.5894 36.3924H82.1021L81.662 35.0547H79.2594L78.8194 36.3924H77.3408ZM79.6378 33.8666H81.2836L80.2803 30.7687H80.6499L79.6378 33.8666Z" fill="black"/>
<path d="M86.383 36.3924V29.8358H88.5216C89.2315 29.8358 89.8476 29.9766 90.3697 30.2583C90.8919 30.5399 91.2968 30.9271 91.5843 31.42C91.8718 31.9128 92.0155 32.4761 92.0155 33.1097C92.0155 33.7434 91.8718 34.3096 91.5843 34.8083C91.2968 35.3011 90.8919 35.6884 90.3697 35.97C89.8476 36.2516 89.2315 36.3924 88.5216 36.3924H86.383ZM87.7471 35.2043H88.5568C88.9851 35.2043 89.3547 35.1192 89.6657 34.9491C89.9766 34.7731 90.2172 34.5296 90.3874 34.2186C90.5634 33.9018 90.6514 33.5322 90.6514 33.1097C90.6514 32.6814 90.5634 32.3118 90.3874 32.0008C90.2172 31.6898 89.9766 31.4493 89.6657 31.2791C89.3547 31.109 88.9851 31.0239 88.5568 31.0239H87.7471V35.2043Z" fill="black"/>
<path d="M95.0012 36.3924V29.8358H99.4105V31.0239H96.3654V32.5113H99.2344V33.6994H96.3654V35.2043H99.4105V36.3924H95.0012Z" fill="black"/>
<path d="M102.296 36.3924V29.8358H103.616L106.072 33.0921H105.455L107.84 29.8358H109.161V36.3924H107.796V31.3408L108.342 31.464L105.816 34.7203H105.64L103.202 31.464L103.66 31.3408V36.3924H102.296Z" fill="black"/>
<path d="M114.134 36.3924V33.5322L111.951 29.8358H113.509L115.093 32.6169H114.539L116.114 29.8358H117.672L115.498 33.5234V36.3924H114.134Z" fill="black"/>
<rect x="49.6914" y="0.0585938" width="0.877314" height="43.6551" fill="black"/>
<path fill-rule="evenodd" clip-rule="evenodd" d="M28.6704 29.0456H28.6691H20.0597C18.4978 29.0456 17.2301 27.778 17.2301 26.2161C17.2301 24.6542 18.4978 23.3865 20.0597 23.3865H28.6192C28.6371 23.3862 28.655 23.386 28.673 23.386L28.6892 23.386C28.8639 23.3799 30.4067 23.3054 31.8458 22.5414C33.6265 21.5945 34.4565 20.025 34.4565 17.6029C34.4565 15.1808 33.6265 13.6113 31.8458 12.6644C30.3178 11.8532 28.6691 11.8193 28.6502 11.8193H20.0559C18.494 11.8193 17.2264 10.5516 17.2264 8.98972C17.2264 7.4278 18.494 6.16016 20.0559 6.16016H28.6691C33.2681 6.16016 40.1119 9.20853 40.1119 17.6029C40.1119 21.606 38.5555 24.3934 36.4284 26.2141C38.5575 28.0348 40.1158 30.8232 40.1158 34.8287C40.1158 36.3907 38.8481 37.6583 37.2862 37.6583C35.7243 37.6583 34.4567 36.3907 34.4567 34.8287C34.4567 32.4066 33.6267 30.8372 31.8459 29.8902C30.408 29.1269 28.8631 29.0518 28.6704 29.0456ZM20.06 37.6592H28.6732C30.2351 37.6592 31.5028 36.3916 31.5028 34.8297C31.5028 33.2677 30.2351 32.0001 28.6732 32.0001H20.06C20.0449 32.0001 18.5094 31.9662 17.0192 31.2229C15.1479 30.2873 14.2764 28.6386 14.2764 26.2165C14.2764 23.7944 15.1064 22.2249 16.8872 21.278C18.4151 20.4668 20.06 20.4329 20.06 20.4329H28.6732C30.2351 20.4329 31.5028 19.1652 31.5028 17.6033C31.5028 16.0414 30.2351 14.7737 28.6732 14.7737H20.06C15.4611 14.7737 8.61729 17.8221 8.61729 26.2165C8.61729 34.6108 15.4611 37.6592 20.06 37.6592ZM2.2561 36.1616C2.76542 37.1161 3.74634 37.6594 4.75743 37.6594C5.20639 37.6594 5.66289 37.5537 6.08544 37.3274C7.46249 36.5917 7.98691 34.8788 7.25122 33.498C6.19485 31.5135 5.65912 29.065 5.65912 26.2242C5.65912 26.1336 5.80626 17.0036 12.7481 13.3931C14.1327 12.6725 14.6722 10.9634 13.9516 9.5788C13.231 8.19421 11.5257 7.6547 10.1374 8.3753C0.116956 13.5855 0 25.7035 0 26.2166C0 30.0044 0.758322 33.3509 2.2561 36.1616Z" fill="url(#paint0_linear_151_7196)"/>
<path d="M118.297 0H118.843L120.126 3.1354H120.171L121.454 0H122V3.77723H121.572V0.907421H121.536L120.355 3.77723H119.942L118.762 0.907421H118.725V3.77723H118.297V0Z" fill="black"/>
<path d="M114.758 0.405757V0H117.591V0.405757H116.403V3.77723H115.946V0.405757H114.758Z" fill="black"/>
<defs>
<linearGradient id="paint0_linear_151_7196" x1="5.98495" y1="11.4527" x2="40.1683" y2="37.7519" gradientUnits="userSpaceOnUse">
<stop stop-color="#2BA2FF"/>
<stop offset="0.33" stop-color="#3E00FF"/>
<stop offset="0.66" stop-color="#E64450"/>
<stop offset="1" stop-color="#E4B95D"/>
</linearGradient>
</defs>
</svg>
