<svg width="41" height="32" viewBox="0 0 41 32" fill="none" xmlns="http://www.w3.org/2000/svg">
<path fill-rule="evenodd" clip-rule="evenodd" d="M28.6704 23.0456H28.6691H20.0597C18.4978 23.0456 17.2301 21.778 17.2301 20.2161C17.2301 18.6542 18.4978 17.3865 20.0597 17.3865H28.6192C28.6371 17.3862 28.655 17.386 28.673 17.386L28.6892 17.386C28.8639 17.3799 30.4067 17.3054 31.8458 16.5414C33.6265 15.5945 34.4565 14.025 34.4565 11.6029C34.4565 9.18079 33.6265 7.61133 31.8458 6.66437C30.3178 5.85323 28.6691 5.81927 28.6502 5.81927H20.0559C18.494 5.81927 17.2264 4.55163 17.2264 2.98972C17.2264 1.4278 18.494 0.160156 20.0559 0.160156H28.6691C33.2681 0.160156 40.1119 3.20853 40.1119 11.6029C40.1119 15.606 38.5555 18.3934 36.4284 20.2141C38.5575 22.0348 40.1158 24.8232 40.1158 28.8287C40.1158 30.3907 38.8481 31.6583 37.2862 31.6583C35.7243 31.6583 34.4567 30.3907 34.4567 28.8287C34.4567 26.4066 33.6267 24.8372 31.8459 23.8902C30.408 23.1269 28.8631 23.0518 28.6704 23.0456ZM20.06 31.6592H28.6732C30.2351 31.6592 31.5028 30.3916 31.5028 28.8297C31.5028 27.2677 30.2351 26.0001 28.6732 26.0001H20.06C20.0449 26.0001 18.5094 25.9662 17.0192 25.2229C15.1479 24.2873 14.2764 22.6386 14.2764 20.2165C14.2764 17.7944 15.1064 16.2249 16.8872 15.278C18.4151 14.4668 20.06 14.4329 20.06 14.4329H28.6732C30.2351 14.4329 31.5028 13.1652 31.5028 11.6033C31.5028 10.0414 30.2351 8.77375 28.6732 8.77375H20.06C15.4611 8.77375 8.61729 11.8221 8.61729 20.2165C8.61729 28.6108 15.4611 31.6592 20.06 31.6592ZM2.2561 30.1616C2.76542 31.1161 3.74634 31.6594 4.75743 31.6594C5.20639 31.6594 5.66289 31.5537 6.08544 31.3274C7.46249 30.5917 7.98691 28.8788 7.25122 27.498C6.19485 25.5135 5.65912 23.065 5.65912 20.2242C5.65912 20.1336 5.80626 11.0036 12.7481 7.39305C14.1327 6.67246 14.6722 4.9634 13.9516 3.5788C13.231 2.19421 11.5257 1.6547 10.1374 2.3753C0.116956 7.58546 0 19.7035 0 20.2166C0 24.0044 0.758322 27.3509 2.2561 30.1616Z" fill="url(#paint0_linear_151_7200)"/>
<defs>
<linearGradient id="paint0_linear_151_7200" x1="5.98495" y1="5.45269" x2="40.1683" y2="31.7519" gradientUnits="userSpaceOnUse">
<stop stop-color="#2BA2FF"/>
<stop offset="0.33" stop-color="#3E00FF"/>
<stop offset="0.66" stop-color="#E64450"/>
<stop offset="1" stop-color="#E4B95D"/>
</linearGradient>
</defs>
</svg>
